<svg xmlns="http://www.w3.org/2000/svg" width="20" height="20" fill="none" viewBox="0 0 20 20"><g clip-path="url(#a)"><path fill="#fff" d="m18.333 20-4.375-4.167.525 1.667H3.75a2.083 2.083 0 0 1-2.083-2.083v-12.5A2.083 2.083 0 0 1 3.75.833h12.5a2.083 2.083 0 0 1 2.083 2.084zM10 5.667c-2.233 0-3.8.958-3.8.958.858-.767 2.358-1.208 2.358-1.208l-.141-.142c-1.409.025-2.684 1-2.684 1C4.3 9.267 4.392 11.85 4.392 11.85c1.166 1.508 2.9 1.4 2.9 1.4l.591-.75c-1.041-.225-1.7-1.15-1.7-1.15S7.75 12.417 10 12.417s3.817-1.067 3.817-1.067-.659.925-1.7 1.15l.591.75s1.734.108 2.9-1.4c0 0 .092-2.583-1.341-5.575 0 0-1.275-.975-2.684-1l-.141.142s1.5.441 2.358 1.208c0 0-1.567-.958-3.8-.958M8.275 8.825c.542 0 .983.475.975 1.058 0 .575-.433 1.059-.975 1.059-.533 0-.967-.484-.967-1.059 0-.583.425-1.058.967-1.058m3.475 0c.542 0 .975.475.975 1.058 0 .575-.433 1.059-.975 1.059-.533 0-.967-.484-.967-1.059 0-.583.425-1.058.967-1.058"/></g><defs><clipPath id="a"><path fill="#fff" d="M0 0h20v20H0z"/></clipPath></defs></svg>