<svg xmlns="http://www.w3.org/2000/svg" width="20" height="20" fill="none" viewBox="0 0 20 20"><path fill="#fff" d="M12.083 12.842c.067.075.067.233 0 .325-.608.583-1.741.633-2.083.633-.325 0-1.458-.05-2.05-.633-.083-.092-.083-.25 0-.325a.23.23 0 0 1 .317 0c.383.383 1.175.491 1.733.491.575 0 1.383-.108 1.75-.491a.253.253 0 0 1 .333 0m-3.125-1.975A.87.87 0 0 0 8.092 10a.866.866 0 1 0 .867.867m2.95-.867c-.475 0-.866.417-.866.875s.391.867.866.867.867-.4.867-.867c0-.458-.392-.875-.867-.875m6.425 0c0 4.583-3.75 8.333-8.333 8.333S1.667 14.583 1.667 10 5.417 1.667 10 1.667s8.333 3.75 8.333 8.333m-2.775 0c0-.675-.558-1.217-1.208-1.217-.333 0-.633.134-.85.342-.833-.6-1.975-.983-3.25-1.033l.558-2.609 1.809.392c.016.458.4.825.866.825a.87.87 0 0 0 .867-.867.87.87 0 0 0-.867-.866c-.341 0-.641.2-.775.491l-2.025-.433c-.058-.025-.116 0-.158.033a.2.2 0 0 0-.083.142l-.617 2.9c-1.292.042-2.458.425-3.308 1.033a1.21 1.21 0 0 0-.842-.333A1.21 1.21 0 0 0 4.458 10c0 .508.3.925.717 1.117a3 3 0 0 0-.025.366c0 1.85 2.175 3.392 4.85 3.392 2.692 0 4.875-1.517 4.875-3.392 0-.116-.008-.233-.033-.366.416-.192.716-.617.716-1.117"/></svg>