<svg xmlns="http://www.w3.org/2000/svg" width="20" height="20" fill="none" viewBox="0 0 20 20"><path fill="#fff" d="M18.717 5a7.1 7.1 0 0 1-2.05.575 3.58 3.58 0 0 0 1.566-1.983 7.2 7.2 0 0 1-2.266.875c-.659-.717-1.584-1.134-2.634-1.134a3.57 3.57 0 0 0-3.558 3.575c0 .284.033.559.092.817A10.16 10.16 0 0 1 2.5 3.992a3.54 3.54 0 0 0-.483 1.791c0 1.242.625 2.342 1.591 2.967a3.54 3.54 0 0 1-1.625-.417v.025a3.58 3.58 0 0 0 2.867 3.509 3.5 3.5 0 0 1-1.608.058 3.57 3.57 0 0 0 3.333 2.483 7.1 7.1 0 0 1-4.442 1.534q-.424 0-.85-.05A10.1 10.1 0 0 0 6.767 17.5c6.566 0 10.175-5.45 10.175-10.175 0-.158 0-.308-.009-.467.7-.5 1.3-1.133 1.784-1.858"/></svg>